<svg width="24" height="25" viewBox="0 0 24 25" fill="none" xmlns="http://www.w3.org/2000/svg">
<path d="M12.0012 2.36146C12.0012 1.27084 12.8912 0.370148 13.9671 0.548824C16.0301 0.891424 17.9798 1.76949 19.6139 3.11059C21.76 4.87184 23.229 7.32272 23.7706 10.0456C24.3123 12.7686 23.893 15.595 22.5843 18.0435C21.2756 20.4919 19.1584 22.4108 16.5934 23.4733C14.0285 24.5357 11.1745 24.6759 8.5178 23.87C5.86108 23.0641 3.56599 21.3619 2.02358 19.0536C0.481175 16.7452 -0.213118 13.9734 0.0590043 11.2105C0.266213 9.10669 1.024 7.10714 2.24046 5.40616C2.87488 4.51906 4.14111 4.5266 4.91229 5.29779C5.68348 6.06897 5.65743 7.31158 5.09662 8.24696C4.48845 9.26136 4.10698 10.4045 3.98946 11.5976C3.8069 13.4512 4.27269 15.3107 5.30746 16.8593C6.34222 18.408 7.88195 19.5499 9.66428 20.0906C11.4466 20.6313 13.3613 20.5372 15.082 19.8244C16.8028 19.1117 18.2232 17.8243 19.1011 16.1817C19.9791 14.5391 20.2604 12.6429 19.8971 10.8161C19.5337 8.9894 18.5482 7.34516 17.1084 6.16358C16.1817 5.40301 15.1036 4.86443 13.9563 4.57718C12.8983 4.31232 12.0012 3.45208 12.0012 2.36146Z" fill="#001514"/>
</svg>
